<?xml version="1.0" encoding="utf-8"?><svg id="learn" xmlns="http://www.w3.org/2000/svg" preserveAspectRatio="xMidYMid meet"  xmlns:xlink="http://www.w3.org/1999/xlink" width="2000" height="2000" viewBox="0 0 2000 2000"><defs><style>.cls-1{fill:url(#linear-gradient);}.cls-2{fill:url(#linear-gradient-2);}.cls-3{fill:url(#linear-gradient-3);}.cls-4{fill:url(#linear-gradient-4);}.cls-5{fill:url(#linear-gradient-5);}.cls-6{fill:url(#linear-gradient-6);}.cls-7{fill:url(#linear-gradient-7);}.cls-8{fill:url(#linear-gradient-8);}.cls-9{fill:url(#linear-gradient-9);}.cls-10{fill:url(#linear-gradient-10);}.cls-11{fill:url(#linear-gradient-11);}.cls-12{fill:url(#linear-gradient-12);}.cls-13{fill:url(#linear-gradient-13);}.cls-14{fill:url(#linear-gradient-14);}.cls-15{fill:url(#linear-gradient-15);}.cls-16{fill:url(#linear-gradient-16);}.cls-17{fill:url(#linear-gradient-17);}</style><linearGradient id="linear-gradient" x1="1162.7693" y1="1375.1191" x2="1656.4159" y2="1868.7694" gradientTransform="translate(-0.0039 2.0471)" gradientUnits="userSpaceOnUse"><stop offset="0" stop-color="#ffce47"/><stop offset="1" stop-color="#ff9356"/></linearGradient><linearGradient id="linear-gradient-2" x1="482.6035" y1="1211.8055" x2="1057.2393" y2="1786.4415" xlink:href="#linear-gradient"/><linearGradient id="linear-gradient-3" x1="996.1175" y1="710.5908" x2="996.1175" y2="952.7161" gradientTransform="translate(-0.0039 2.0471)" gradientUnits="userSpaceOnUse"><stop offset="0" stop-color="#ff9356"/><stop offset="1" stop-color="#ff755c"/></linearGradient><linearGradient id="linear-gradient-4" x1="996.1175" y1="698.2783" x2="996.1175" y2="977.3372" gradientTransform="translate(-0.0039 2.0471)" gradientUnits="userSpaceOnUse"><stop offset="0" stop-color="#843561" stop-opacity="0"/><stop offset="1" stop-color="#3a2f4d"/></linearGradient><linearGradient id="linear-gradient-5" x1="1260.5796" y1="1716.7358" x2="983.5908" y2="1051.9532" gradientTransform="translate(-0.0039 2.0471)" gradientUnits="userSpaceOnUse"><stop offset="0" stop-color="#ff9356" stop-opacity="0"/><stop offset="1" stop-color="#ff755c"/></linearGradient><linearGradient id="linear-gradient-6" x1="359.9477" y1="1008.0685" x2="844.3407" y2="1492.4654" xlink:href="#linear-gradient"/><linearGradient id="linear-gradient-7" x1="1296.4168" y1="949.7957" x2="1641.1361" y2="1343.761" xlink:href="#linear-gradient"/><linearGradient id="linear-gradient-8" x1="384.856" y1="393.2323" x2="384.856" y2="749.0597" xlink:href="#linear-gradient"/><linearGradient id="linear-gradient-9" x1="1607.3813" y1="322.0968" x2="1607.3813" y2="532.7598" gradientTransform="translate(-0.0039 2.0471)" gradientUnits="userSpaceOnUse"><stop offset="0" stop-color="#ff755c"/><stop offset="1" stop-color="#ff4181"/></linearGradient><linearGradient id="linear-gradient-10" x1="628.6932" y1="349.4575" x2="628.6932" y2="828.3599" gradientTransform="translate(-0.0039 2.0471)" gradientUnits="userSpaceOnUse"><stop offset="0" stop-color="#e4e08e"/><stop offset="1" stop-color="#6fa953"/></linearGradient><linearGradient id="linear-gradient-11" x1="1363.54" y1="469.8353" x2="1363.54" y2="906.7675" gradientTransform="translate(-0.0039 2.0471)" gradientUnits="userSpaceOnUse"><stop offset="0" stop-color="#ff4181"/><stop offset="1" stop-color="#843561"/></linearGradient><linearGradient id="linear-gradient-12" x1="996.1175" y1="261.908" x2="996.1175" y2="740.6873" gradientTransform="translate(-0.0039 2.0471)" gradientUnits="userSpaceOnUse"><stop offset="0" stop-color="#7acbff"/><stop offset="1" stop-color="#45a2e0"/></linearGradient><linearGradient id="linear-gradient-13" x1="508.3263" y1="702.3838" x2="508.3263" y2="881.0881" xlink:href="#linear-gradient-5"/><linearGradient id="linear-gradient-14" x1="743.1037" y1="679.8134" x2="743.1037" y2="1038.9459" gradientTransform="translate(-0.0039 2.0471)" gradientUnits="userSpaceOnUse"><stop offset="0" stop-color="#43765a" stop-opacity="0"/><stop offset="1" stop-color="#43765a"/></linearGradient><linearGradient id="linear-gradient-15" x1="996.1176" y1="694.1768" x2="996.1176" y2="1207.4656" gradientTransform="translate(-0.0039 2.0471)" gradientUnits="userSpaceOnUse"><stop offset="0" stop-color="#174461" stop-opacity="0"/><stop offset="1" stop-color="#174461"/></linearGradient><linearGradient id="linear-gradient-16" x1="1249.1313" y1="778.425" x2="1249.1313" y2="954.7823" xlink:href="#linear-gradient-4"/><linearGradient id="linear-gradient-17" x1="1483.9089" y1="683.915" x2="1483.9089" y2="987.7721" xlink:href="#linear-gradient-4"/></defs><path class="cls-1" d="M1675.6042,822.9241l-593.9394,340.3851a164.2433,164.2433,0,0,1-163.3323,0L324.393,822.9242a215.0342,215.0342,0,0,0-29.2062,108.3075v557.7649a216.0282,216.0282,0,0,0,108.5084,187.2079l489.008,280.2a215.78,215.78,0,0,0,214.6913,0l488.9038-280.2a216.0287,216.0287,0,0,0,108.5085-187.2079V931.2316a215.0036,215.0036,0,0,0-29.2024-108.3076Z"/><path class="cls-2" d="M918.3324,1163.313,324.3929,822.9279a215.0355,215.0355,0,0,0-29.2062,108.3075V1489A216.0285,216.0285,0,0,0,403.695,1676.2083l489.0081,280.2A215.6685,215.6685,0,0,0,999.9986,1985V1185.0525A164.16,164.16,0,0,1,918.3324,1163.313Z"/><path class="cls-3" d="M1675.6042,822.9241l-675.6057,387.19L324.3928,822.924c34.9386-22.0833,568.31-359.1,568.31-359.1a215.7659,215.7659,0,0,1,214.6876,0c.0039.0038,534.8279,338.0172,568.2136,359.1Z"/><path class="cls-4" d="M1675.6042,822.9241l-675.6057,387.19L324.3928,822.924c33.03-20.8975,568.31-359.1,568.31-359.1a215.7659,215.7659,0,0,1,214.6876,0c.0039.0038,534.573,337.8858,568.2136,359.1Z"/><path class="cls-5" d="M1704.83,931.2509V1489a216.0236,216.0236,0,0,1-108.5163,187.2079L1107.4059,1956.4a215.6937,215.6937,0,0,1-107.4036,28.5921c-2.8,0-5.6434-.0424-8.444-.2047l-696.391-696.3831V931.251a215.3717,215.3717,0,0,1,29.21-108.3114L999.9985,1210.114,1675.62,822.94a215.3742,215.3742,0,0,1,29.21,108.3114Z"/><path class="cls-6" d="M999.9986,1210.1257,731.4413,1478.683a70.2071,70.2071,0,0,1-84.5478,11.2715L60.5752,1153.9768a37.6543,37.6543,0,0,1-7.9071-59.2932L324.3775,822.9357Z"/><path class="cls-7" d="M999.9986,1210.1257l268.5573,268.5574a70.2066,70.2066,0,0,0,84.5479,11.2715l586.3222-335.9738a37.6543,37.6543,0,0,0,7.907-59.2932L1675.6235,822.94Z"/><path class="cls-8" d="M536.6275,344.4459,377.8958,15H249.6526c-78.0042,0-123.0941,88.4723-77.2549,151.59L275.815,308.9936A783.054,783.054,0,0,1,425.2723,769.1354V880.7146l193.4309,110.857V725.32c0-136.8339-28.7312-270.16-82.0757-380.8744Z"/><path class="cls-9" d="M1750.3446,15H1622.1014L1463.37,344.4459c-53.3445,110.7178-82.0756,244.0405-82.0756,380.8743V991.5715l193.4308-110.8569V769.1353A783.03,783.03,0,0,1,1724.186,308.9935l103.4174-142.4C1873.4426,103.4723,1828.3527,15,1750.3446,15Z"/><path class="cls-10" d="M884.3866,725.32c0-136.8338-8.7105-270.1565-24.8876-380.8743L811.3731,15H377.8958L536.6276,344.4459c53.3445,110.7178,82.0756,244.0405,82.0756,380.8743V991.5715l265.6835,152.2693Z"/><path class="cls-11" d="M1463.37,344.4459,1622.1014,15H1188.6241l-48.13,329.4458c-16.1733,110.7178-24.8877,244.0405-24.8877,380.8743v418.5208L1381.29,991.5716V725.32c.0039-136.8339,28.735-270.16,82.08-380.8744Z"/><path class="cls-12" d="M1115.6105,725.32c0-136.8338,8.71-270.1565,24.8875-380.8743L1188.624,15H811.3729l48.13,329.4458C875.676,455.1637,884.39,588.4864,884.39,725.32v418.5209l115.6081,66.2576,115.6119-66.2578Z"/><path class="cls-13" d="M425.2723,769.1315V880.7107l193.4309,110.857V725.32a964.5721,964.5721,0,0,0-11.0938-145.9H401.9066a782.8161,782.8161,0,0,1,23.3658,189.711Z"/><path class="cls-14" d="M618.7032,725.32V991.5715l265.6834,152.2693V725.32c0-49.3968-1.1511-98.3146-3.3644-145.9H607.6094a964.5336,964.5336,0,0,1,11.0938,145.9Z"/><path class="cls-15" d="M881.0222,579.4205c2.2133,47.5852,3.3644,96.503,3.3644,145.9v418.52l115.612,66.2576,115.6119-66.2578V725.32c0-49.3968,1.1511-98.3146,3.3645-145.9Z"/><path class="cls-16" d="M1118.975,579.4205c-2.2134,47.5852-3.3645,96.503-3.3645,145.9v418.52l265.6834-152.2693V725.32a964.5721,964.5721,0,0,1,11.0938-145.9Z"/><path class="cls-17" d="M1392.3878,579.4205a964.5577,964.5577,0,0,0-11.0937,145.9V991.5715l193.4308-110.8569V769.1353a783.0122,783.0122,0,0,1,23.3657-189.7148Z"/></svg>